<svg width="10" height="10" viewBox="0 0 10 10" fill="none" xmlns="http://www.w3.org/2000/svg">
<path d="M4.975 8C5.15 8 5.29792 7.93958 5.41875 7.81875C5.53958 7.69792 5.6 7.55 5.6 7.375C5.6 7.2 5.53958 7.05208 5.41875 6.93125C5.29792 6.81042 5.15 6.75 4.975 6.75C4.8 6.75 4.65208 6.81042 4.53125 6.93125C4.41042 7.05208 4.35 7.2 4.35 7.375C4.35 7.55 4.41042 7.69792 4.53125 7.81875C4.65208 7.93958 4.8 8 4.975 8ZM4.525 6.075H5.45C5.45 5.8 5.48125 5.58333 5.54375 5.425C5.60625 5.26667 5.78333 5.05 6.075 4.775C6.29167 4.55833 6.4625 4.35208 6.5875 4.15625C6.7125 3.96042 6.775 3.725 6.775 3.45C6.775 2.98333 6.60417 2.625 6.2625 2.375C5.92083 2.125 5.51667 2 5.05 2C4.575 2 4.18958 2.125 3.89375 2.375C3.59792 2.625 3.39167 2.925 3.275 3.275L4.1 3.6C4.14167 3.45 4.23542 3.2875 4.38125 3.1125C4.52708 2.9375 4.75 2.85 5.05 2.85C5.31667 2.85 5.51667 2.92292 5.65 3.06875C5.78333 3.21458 5.85 3.375 5.85 3.55C5.85 3.71667 5.8 3.87292 5.7 4.01875C5.6 4.16458 5.475 4.3 5.325 4.425C4.95833 4.75 4.73333 4.99583 4.65 5.1625C4.56667 5.32917 4.525 5.63333 4.525 6.075ZM5 10C4.30833 10 3.65833 9.86875 3.05 9.60625C2.44167 9.34375 1.9125 8.9875 1.4625 8.5375C1.0125 8.0875 0.65625 7.55833 0.39375 6.95C0.13125 6.34167 0 5.69167 0 5C0 4.30833 0.13125 3.65833 0.39375 3.05C0.65625 2.44167 1.0125 1.9125 1.4625 1.4625C1.9125 1.0125 2.44167 0.65625 3.05 0.39375C3.65833 0.13125 4.30833 0 5 0C5.69167 0 6.34167 0.13125 6.95 0.39375C7.55833 0.65625 8.0875 1.0125 8.5375 1.4625C8.9875 1.9125 9.34375 2.44167 9.60625 3.05C9.86875 3.65833 10 4.30833 10 5C10 5.69167 9.86875 6.34167 9.60625 6.95C9.34375 7.55833 8.9875 8.0875 8.5375 8.5375C8.0875 8.9875 7.55833 9.34375 6.95 9.60625C6.34167 9.86875 5.69167 10 5 10ZM5 9C6.11667 9 7.0625 8.6125 7.8375 7.8375C8.6125 7.0625 9 6.11667 9 5C9 3.88333 8.6125 2.9375 7.8375 2.1625C7.0625 1.3875 6.11667 1 5 1C3.88333 1 2.9375 1.3875 2.1625 2.1625C1.3875 2.9375 1 3.88333 1 5C1 6.11667 1.3875 7.0625 2.1625 7.8375C2.9375 8.6125 3.88333 9 5 9Z" fill="#88888C"/>
</svg>
