<svg width="37" height="53" viewBox="0 0 37 53" fill="none" xmlns="http://www.w3.org/2000/svg">
<path d="M20.1746 26.7013C20.3407 26.5286 20.3407 26.4203 20.3407 26.4203H36.3661C36.3661 27.1783 36.4097 28.7034 36.3516 29.1677C36.2936 29.632 35.6504 30.1833 35.336 30.4009L2.69102 52.6241C2.57011 52.6966 2.24193 52.9038 1.89372 52.9618C1.45846 53.0344 1.28284 53.0265 0.850259 52.7323C0.850259 52.7323 0.52542 52.5158 0.30886 52.2992C0.0922997 52.0827 0.0922989 51.7578 0.0801503 51.5835C0.0680016 51.4092 -0.0939528 41.8627 0.0801503 40.9922C0.254253 40.1217 0.733037 39.6139 0.950666 39.4688C0.950666 39.4688 20.0084 26.8739 20.1746 26.7013Z" fill="#9600C8"/>
<path d="M20.1746 26.2988C20.3407 26.4714 20.3407 26.5797 20.3407 26.5797H36.3661C36.3661 25.8217 36.4097 24.2966 36.3516 23.8323C36.2936 23.368 35.6504 22.8167 35.336 22.5991L2.69102 0.37594C2.57011 0.303398 2.24193 0.0962334 1.89372 0.0381985C1.45846 -0.0343437 1.28284 -0.0264854 0.850259 0.267662C0.850259 0.267662 0.52542 0.484221 0.30886 0.700781C0.0922997 0.917341 0.0922989 1.24218 0.0801503 1.41652C0.0680016 1.59085 -0.0939528 11.1373 0.0801503 12.0078C0.254253 12.8783 0.733037 13.3861 0.950666 13.5312C0.950666 13.5312 20.0084 26.1261 20.1746 26.2988Z" fill="#9600C8"/>
</svg>
